<svg xmlns="http://www.w3.org/2000/svg" xmlns:xlink="http://www.w3.org/1999/xlink" width="500" zoomAndPan="magnify" viewBox="0 0 375 374.999991" height="500" preserveAspectRatio="xMidYMid meet" version="1.0"><defs><clipPath id="b59771c4b7"><path d="M 163 60 L 332.261719 60 L 332.261719 229 L 163 229 Z M 163 60 " clip-rule="nonzero"/></clipPath><clipPath id="c66e340a25"><path d="M 42.761719 129 L 212 129 L 212 298.324219 L 42.761719 298.324219 Z M 42.761719 129 " clip-rule="nonzero"/></clipPath></defs><g clip-path="url(#b59771c4b7)"><path fill="#f5be1e" d="M 287.722656 88.953125 L 247.3125 65.683594 L 250.320312 65.695312 L 209.304688 88.855469 L 210.847656 86.171875 L 211.441406 132.351562 L 209.964844 129.785156 L 249.734375 153.605469 L 246.644531 153.585938 L 287.515625 129.785156 L 286.007812 132.398438 L 286.203125 86.304688 L 287.722656 88.953125 M 290.753906 83.6875 C 291.699219 84.230469 292.28125 85.242188 292.277344 86.332031 L 292.082031 132.425781 C 292.078125 133.5 291.503906 134.496094 290.574219 135.035156 L 249.699219 158.835938 C 248.746094 159.394531 247.5625 159.386719 246.613281 158.816406 L 206.84375 134.996094 C 205.9375 134.457031 205.378906 133.484375 205.367188 132.429688 L 204.773438 86.25 C 204.757812 85.140625 205.351562 84.113281 206.316406 83.566406 L 247.332031 60.402344 C 248.269531 59.875 249.414062 59.882812 250.34375 60.417969 Z M 246.859375 158.09375 L 206.449219 134.824219 L 209.457031 134.835938 L 168.441406 158 L 169.984375 155.3125 L 170.578125 201.496094 L 169.101562 198.929688 L 208.871094 222.75 L 205.78125 222.730469 L 246.652344 198.929688 L 245.144531 201.539062 L 245.335938 155.449219 L 246.859375 158.09375 M 249.890625 152.828125 C 250.835938 153.375 251.417969 154.382812 251.414062 155.472656 L 251.21875 201.566406 C 251.214844 202.644531 250.640625 203.636719 249.707031 204.179688 L 208.835938 227.980469 C 207.882812 228.535156 206.699219 228.527344 205.75 227.960938 L 165.980469 204.140625 C 165.074219 203.597656 164.515625 202.625 164.503906 201.574219 L 163.910156 155.390625 C 163.894531 154.28125 164.488281 153.253906 165.453125 152.707031 L 206.46875 129.546875 C 207.40625 129.019531 208.550781 129.023438 209.480469 129.558594 Z M 327.710938 158.304688 L 287.300781 135.03125 L 290.308594 135.046875 L 249.292969 158.207031 L 250.835938 155.523438 L 251.429688 201.703125 L 249.953125 199.136719 L 289.722656 222.957031 L 286.632812 222.9375 L 327.503906 199.136719 L 325.996094 201.75 L 326.191406 155.65625 L 327.710938 158.304688 M 330.742188 153.039062 C 331.691406 153.582031 332.269531 154.59375 332.265625 155.683594 L 332.070312 201.773438 C 332.066406 202.851562 331.492188 203.84375 330.5625 204.386719 L 289.691406 228.1875 C 288.734375 228.746094 287.550781 228.738281 286.601562 228.167969 L 246.832031 204.347656 C 245.925781 203.808594 245.367188 202.835938 245.355469 201.78125 L 244.761719 155.601562 C 244.746094 154.492188 245.339844 153.460938 246.304688 152.917969 L 287.324219 129.753906 C 288.257812 129.226562 289.402344 129.230469 290.332031 129.769531 Z M 330.742188 153.039062 " fill-opacity="1" fill-rule="nonzero"/></g><g clip-path="url(#c66e340a25)"><path fill="#f5be1e" d="M 166.585938 158.527344 L 126.171875 135.257812 L 129.183594 135.269531 L 88.164062 158.433594 L 89.707031 155.746094 L 90.300781 201.929688 L 88.824219 199.363281 L 128.59375 223.183594 L 125.507812 223.164062 L 166.378906 199.363281 L 164.867188 201.972656 L 165.0625 155.882812 L 166.585938 158.527344 M 169.617188 153.261719 C 170.5625 153.808594 171.144531 154.816406 171.136719 155.90625 L 170.941406 202 C 170.9375 203.078125 170.363281 204.070312 169.433594 204.613281 L 128.5625 228.414062 C 127.605469 228.96875 126.421875 228.960938 125.472656 228.394531 L 85.703125 204.574219 C 84.800781 204.03125 84.242188 203.0625 84.226562 202.007812 L 83.632812 155.824219 C 83.621094 154.714844 84.210938 153.6875 85.179688 153.140625 L 126.195312 129.980469 C 127.128906 129.453125 128.273438 129.457031 129.203125 129.992188 Z M 125.722656 227.667969 L 85.308594 204.398438 L 88.320312 204.414062 L 47.300781 227.574219 L 48.84375 224.890625 L 49.4375 271.070312 L 47.960938 268.503906 L 87.730469 292.324219 L 84.640625 292.304688 L 125.515625 268.503906 L 124.003906 271.117188 L 124.199219 225.023438 L 125.722656 227.667969 M 128.753906 222.40625 C 129.699219 222.949219 130.277344 223.960938 130.273438 225.050781 L 130.078125 271.140625 C 130.074219 272.21875 129.5 273.210938 128.570312 273.753906 L 87.699219 297.554688 C 86.742188 298.113281 85.558594 298.105469 84.609375 297.535156 L 44.839844 273.714844 C 43.9375 273.175781 43.378906 272.203125 43.363281 271.148438 L 42.769531 224.96875 C 42.757812 223.859375 43.347656 222.828125 44.316406 222.285156 L 85.332031 199.121094 C 86.265625 198.59375 87.410156 198.597656 88.339844 199.136719 Z M 206.574219 227.878906 L 166.164062 204.609375 L 169.171875 204.621094 L 128.15625 227.78125 L 129.699219 225.097656 L 130.292969 271.28125 L 128.816406 268.710938 L 168.585938 292.53125 L 165.496094 292.515625 L 206.367188 268.710938 L 204.859375 271.324219 L 205.054688 225.234375 L 206.574219 227.878906 M 209.605469 222.613281 C 210.550781 223.160156 211.132812 224.167969 211.128906 225.257812 L 210.933594 271.351562 C 210.929688 272.425781 210.355469 273.421875 209.425781 273.960938 L 168.550781 297.765625 C 167.597656 298.320312 166.414062 298.3125 165.464844 297.746094 L 125.695312 273.925781 C 124.789062 273.382812 124.230469 272.410156 124.21875 271.359375 L 123.625 225.175781 C 123.609375 224.066406 124.203125 223.039062 125.167969 222.492188 L 166.183594 199.332031 C 167.121094 198.804688 168.265625 198.808594 169.195312 199.34375 Z M 209.605469 222.613281 " fill-opacity="1" fill-rule="nonzero"/></g></svg>